<svg xmlns="http://www.w3.org/2000/svg" width="96" height="96"><link xmlns="" type="text/css" rel="stylesheet" id="dark-mode-custom-link"/><link xmlns="" type="text/css" rel="stylesheet" id="dark-mode-general-link"/><style xmlns="" lang="en" type="text/css" id="dark-mode-custom-style"/><style xmlns="" lang="en" type="text/css" id="dark-mode-native-style"/><style xmlns="" lang="en" type="text/css" id="dark-mode-native-sheet"/><path fill="#FFF" d="M0 0h96v96H0z"/><path d="M24 20a4 4 0 1 1 0 8 4 4 0 0 1 0-8zm0 48a4 4 0 1 1 0 8 4 4 0 0 1 0-8zm48 0a4 4 0 1 1 0 8 4 4 0 0 1 0-8zm0-48a4 4 0 1 1 0 8 4 4 0 0 1 0-8z"/></svg>